<svg xmlns="http://www.w3.org/2000/svg" viewBox="0 0 960 580">
  <defs>
    <style>
      text { font-family: -apple-system, 'SF Pro', 'Inter', sans-serif; }
      .mono { font-family: 'SF Mono', 'Fira Code', Consolas, monospace; }
    </style>
  </defs>

  <!-- Background -->
  <rect width="960" height="580" fill="#0d1117" rx="8"/>

  <!-- Header bar -->
  <rect x="0" y="0" width="960" height="44" fill="#161b22" rx="8"/>
  <rect x="0" y="36" width="960" height="8" fill="#161b22"/>
  <text x="16" y="28" fill="#58a6ff" font-size="14" font-weight="700" class="mono">claude-hub</text>

  <!-- Tabs -->
  <text x="255" y="72" fill="#8b949e" font-size="12">Sessions</text>
  <text x="335" y="72" fill="#58a6ff" font-size="12" font-weight="600">Agents</text>
  <rect x="335" y="80" width="48" height="2" fill="#58a6ff" rx="1"/>
  <text x="415" y="72" fill="#8b949e" font-size="12">Settings</text>

  <!-- Root node -->
  <rect x="370" y="100" width="220" height="44" fill="#161b22" rx="8" stroke="#58a6ff" stroke-width="1"/>
  <rect x="380" y="108" width="28" height="28" rx="6" fill="#58a6ff"/>
  <text x="388" y="127" fill="#fff" font-size="10" font-weight="700" class="mono">CH</text>
  <text x="416" y="120" fill="#c9d1d9" font-size="13" font-weight="600">claude-hub</text>
  <text x="416" y="135" fill="#8b949e" font-size="9" class="mono">3 projects · 25 sessions · 11 agents · 8 memory</text>

  <!-- Connector from root -->
  <line x1="480" y1="144" x2="480" y2="164" stroke="#30363d" stroke-width="1"/>
  <line x1="180" y1="164" x2="780" y2="164" stroke="#30363d" stroke-width="1"/>

  <!-- Project 1: my-webapp -->
  <line x1="180" y1="164" x2="180" y2="180" stroke="#30363d" stroke-width="1"/>
  <rect x="80" y="180" width="200" height="44" fill="#161b22" rx="8" stroke="#30363d" stroke-width="1"/>
  <rect x="90" y="188" width="28" height="28" rx="6" fill="#1D9E75"/>
  <text x="100" y="207" fill="#fff" font-size="10" font-weight="700" class="mono">MY</text>
  <text x="126" y="200" fill="#c9d1d9" font-size="12" font-weight="600">my-webapp</text>
  <text x="126" y="214" fill="#8b949e" font-size="9" class="mono">12 sessions · 6 agents · <tspan fill="#7C5CFC">3 memory</tspan></text>

  <!-- Task group: Explore -->
  <line x1="180" y1="224" x2="180" y2="240" stroke="#30363d" stroke-width="1"/>
  <line x1="100" y1="240" x2="100" y2="400" stroke="#30363d" stroke-width="1"/>

  <!-- Explore badge -->
  <line x1="100" y1="258" x2="116" y2="258" stroke="#30363d" stroke-width="1"/>
  <rect x="116" y="248" width="60" height="20" rx="4" fill="#1D9E75"/>
  <text x="127" y="262" fill="#fff" font-size="9" font-weight="600" class="mono">EXPLORE</text>
  <text x="182" y="262" fill="#8b949e" font-size="9" class="mono">2 agents</text>

  <!-- Explore agents -->
  <line x1="136" y1="268" x2="136" y2="310" stroke="#30363d" stroke-width="1"/>

  <line x1="136" y1="282" x2="152" y2="282" stroke="#30363d" stroke-width="1"/>
  <rect x="152" y="272" width="180" height="20" fill="#0d1117" rx="4" stroke="#30363d" stroke-width="1"/>
  <rect x="156" y="276" width="14" height="12" rx="3" fill="#0d1117" stroke="#1D9E75" stroke-width="1.5"/>
  <text x="160" y="285" fill="#8b949e" font-size="7" font-weight="700" class="mono">A</text>
  <text x="174" y="286" fill="#c9d1d9" font-size="10" font-weight="600">Find auth middleware files</text>

  <line x1="136" y1="302" x2="152" y2="302" stroke="#30363d" stroke-width="1"/>
  <rect x="152" y="292" width="180" height="20" fill="#0d1117" rx="4" stroke="#30363d" stroke-width="1"/>
  <rect x="156" y="296" width="14" height="12" rx="3" fill="#0d1117" stroke="#1D9E75" stroke-width="1.5"/>
  <text x="160" y="305" fill="#8b949e" font-size="7" font-weight="700" class="mono">A</text>
  <text x="174" y="306" fill="#c9d1d9" font-size="10" font-weight="600">Search for API endpoints</text>

  <!-- Code badge -->
  <line x1="100" y1="340" x2="116" y2="340" stroke="#30363d" stroke-width="1"/>
  <rect x="116" y="330" width="46" height="20" rx="4" fill="#BA7517"/>
  <text x="124" y="344" fill="#fff" font-size="9" font-weight="600" class="mono">CODE</text>
  <text x="168" y="344" fill="#8b949e" font-size="9" class="mono">3 agents</text>

  <!-- Code agents -->
  <line x1="136" y1="350" x2="136" y2="414" stroke="#30363d" stroke-width="1"/>

  <line x1="136" y1="364" x2="152" y2="364" stroke="#30363d" stroke-width="1"/>
  <rect x="152" y="354" width="180" height="20" fill="#0d1117" rx="4" stroke="#30363d" stroke-width="1"/>
  <rect x="156" y="358" width="14" height="12" rx="3" fill="#0d1117" stroke="#BA7517" stroke-width="1.5"/>
  <text x="160" y="367" fill="#8b949e" font-size="7" font-weight="700" class="mono">A</text>
  <text x="174" y="368" fill="#c9d1d9" font-size="10" font-weight="600">Implement JWT validation</text>

  <line x1="136" y1="384" x2="152" y2="384" stroke="#30363d" stroke-width="1"/>
  <rect x="152" y="374" width="180" height="20" fill="#0d1117" rx="4" stroke="#30363d" stroke-width="1"/>
  <rect x="156" y="378" width="14" height="12" rx="3" fill="#0d1117" stroke="#BA7517" stroke-width="1.5"/>
  <text x="160" y="387" fill="#8b949e" font-size="7" font-weight="700" class="mono">A</text>
  <text x="174" y="388" fill="#c9d1d9" font-size="10" font-weight="600">Write settings component</text>

  <line x1="136" y1="404" x2="152" y2="404" stroke="#30363d" stroke-width="1"/>
  <rect x="152" y="394" width="180" height="20" fill="#0d1117" rx="4" stroke="#30363d" stroke-width="1"/>
  <rect x="156" y="398" width="14" height="12" rx="3" fill="#0d1117" stroke="#BA7517" stroke-width="1.5"/>
  <text x="160" y="407" fill="#8b949e" font-size="7" font-weight="700" class="mono">A</text>
  <text x="174" y="408" fill="#c9d1d9" font-size="10" font-weight="600">Refactor route handlers</text>

  <!-- Review badge -->
  <line x1="100" y1="430" x2="116" y2="430" stroke="#30363d" stroke-width="1"/>
  <rect x="116" y="420" width="58" height="20" rx="4" fill="#D4537E"/>
  <text x="124" y="434" fill="#fff" font-size="9" font-weight="600" class="mono">REVIEW</text>
  <text x="180" y="434" fill="#8b949e" font-size="9" class="mono">1 agent</text>

  <line x1="136" y1="440" x2="136" y2="460" stroke="#30363d" stroke-width="1"/>
  <line x1="136" y1="454" x2="152" y2="454" stroke="#30363d" stroke-width="1"/>
  <rect x="152" y="444" width="180" height="20" fill="#0d1117" rx="4" stroke="#30363d" stroke-width="1"/>
  <rect x="156" y="448" width="14" height="12" rx="3" fill="#0d1117" stroke="#D4537E" stroke-width="1.5"/>
  <text x="160" y="457" fill="#8b949e" font-size="7" font-weight="700" class="mono">A</text>
  <text x="174" y="458" fill="#c9d1d9" font-size="10" font-weight="600">Audit security headers</text>

  <!-- Project 2: mobile-app -->
  <line x1="480" y1="164" x2="480" y2="180" stroke="#30363d" stroke-width="1"/>
  <rect x="380" y="180" width="200" height="44" fill="#161b22" rx="8" stroke="#30363d" stroke-width="1"/>
  <rect x="390" y="188" width="28" height="28" rx="6" fill="#378ADD"/>
  <text x="396" y="207" fill="#fff" font-size="10" font-weight="700" class="mono">MO</text>
  <text x="426" y="200" fill="#c9d1d9" font-size="12" font-weight="600">mobile-app</text>
  <text x="426" y="214" fill="#8b949e" font-size="9" class="mono">8 sessions · 3 agents · <tspan fill="#7C5CFC">2 memory</tspan></text>

  <line x1="480" y1="224" x2="480" y2="240" stroke="#30363d" stroke-width="1"/>
  <line x1="400" y1="240" x2="400" y2="340" stroke="#30363d" stroke-width="1"/>

  <!-- Research badge -->
  <line x1="400" y1="258" x2="416" y2="258" stroke="#30363d" stroke-width="1"/>
  <rect x="416" y="248" width="70" height="20" rx="4" fill="#378ADD"/>
  <text x="424" y="262" fill="#fff" font-size="9" font-weight="600" class="mono">RESEARCH</text>
  <text x="492" y="262" fill="#8b949e" font-size="9" class="mono">2 agents</text>

  <line x1="436" y1="268" x2="436" y2="310" stroke="#30363d" stroke-width="1"/>

  <line x1="436" y1="282" x2="452" y2="282" stroke="#30363d" stroke-width="1"/>
  <rect x="452" y="272" width="200" height="20" fill="#0d1117" rx="4" stroke="#30363d" stroke-width="1"/>
  <rect x="456" y="276" width="14" height="12" rx="3" fill="#0d1117" stroke="#378ADD" stroke-width="1.5"/>
  <text x="460" y="285" fill="#8b949e" font-size="7" font-weight="700" class="mono">A</text>
  <text x="474" y="286" fill="#c9d1d9" font-size="10" font-weight="600">Research push notification APIs</text>

  <line x1="436" y1="302" x2="452" y2="302" stroke="#30363d" stroke-width="1"/>
  <rect x="452" y="292" width="200" height="20" fill="#0d1117" rx="4" stroke="#30363d" stroke-width="1"/>
  <rect x="456" y="296" width="14" height="12" rx="3" fill="#0d1117" stroke="#378ADD" stroke-width="1.5"/>
  <text x="460" y="305" fill="#8b949e" font-size="7" font-weight="700" class="mono">A</text>
  <text x="474" y="306" fill="#c9d1d9" font-size="10" font-weight="600">Compare dark mode libraries</text>

  <!-- Plan badge -->
  <line x1="400" y1="340" x2="416" y2="340" stroke="#30363d" stroke-width="1"/>
  <rect x="416" y="330" width="46" height="20" rx="4" fill="#7C5CFC"/>
  <text x="424" y="344" fill="#fff" font-size="9" font-weight="600" class="mono">PLAN</text>
  <text x="468" y="344" fill="#8b949e" font-size="9" class="mono">1 agent</text>

  <line x1="436" y1="350" x2="436" y2="370" stroke="#30363d" stroke-width="1"/>
  <line x1="436" y1="364" x2="452" y2="364" stroke="#30363d" stroke-width="1"/>
  <rect x="452" y="354" width="200" height="20" fill="#0d1117" rx="4" stroke="#30363d" stroke-width="1"/>
  <rect x="456" y="358" width="14" height="12" rx="3" fill="#0d1117" stroke="#7C5CFC" stroke-width="1.5"/>
  <text x="460" y="367" fill="#8b949e" font-size="7" font-weight="700" class="mono">A</text>
  <text x="474" y="368" fill="#c9d1d9" font-size="10" font-weight="600">Design notification architecture</text>

  <!-- Project 3: api-server -->
  <line x1="780" y1="164" x2="780" y2="180" stroke="#30363d" stroke-width="1"/>
  <rect x="680" y="180" width="200" height="44" fill="#161b22" rx="8" stroke="#30363d" stroke-width="1"/>
  <rect x="690" y="188" width="28" height="28" rx="6" fill="#BA7517"/>
  <text x="698" y="207" fill="#fff" font-size="10" font-weight="700" class="mono">AP</text>
  <text x="726" y="200" fill="#c9d1d9" font-size="12" font-weight="600">api-server</text>
  <text x="726" y="214" fill="#8b949e" font-size="9" class="mono">5 sessions · 2 agents · <tspan fill="#7C5CFC">3 memory</tspan></text>

  <line x1="780" y1="224" x2="780" y2="240" stroke="#30363d" stroke-width="1"/>
  <line x1="700" y1="240" x2="700" y2="310" stroke="#30363d" stroke-width="1"/>

  <!-- Deploy badge -->
  <line x1="700" y1="258" x2="716" y2="258" stroke="#30363d" stroke-width="1"/>
  <rect x="716" y="248" width="58" height="20" rx="4" fill="#22AA88"/>
  <text x="724" y="262" fill="#fff" font-size="9" font-weight="600" class="mono">DEPLOY</text>
  <text x="780" y="262" fill="#8b949e" font-size="9" class="mono">1 agent</text>

  <line x1="736" y1="268" x2="736" y2="290" stroke="#30363d" stroke-width="1"/>
  <line x1="736" y1="282" x2="752" y2="282" stroke="#30363d" stroke-width="1"/>
  <rect x="752" y="272" width="180" height="20" fill="#0d1117" rx="4" stroke="#30363d" stroke-width="1"/>
  <rect x="756" y="276" width="14" height="12" rx="3" fill="#0d1117" stroke="#22AA88" stroke-width="1.5"/>
  <text x="760" y="285" fill="#8b949e" font-size="7" font-weight="700" class="mono">A</text>
  <text x="774" y="286" fill="#c9d1d9" font-size="10" font-weight="600">Run database migration</text>

  <!-- Test badge -->
  <line x1="700" y1="310" x2="716" y2="310" stroke="#30363d" stroke-width="1"/>
  <rect x="716" y="300" width="42" height="20" rx="4" fill="#E06C45"/>
  <text x="724" y="314" fill="#fff" font-size="9" font-weight="600" class="mono">TEST</text>
  <text x="764" y="314" fill="#8b949e" font-size="9" class="mono">1 agent</text>

  <line x1="736" y1="320" x2="736" y2="342" stroke="#30363d" stroke-width="1"/>
  <line x1="736" y1="334" x2="752" y2="334" stroke="#30363d" stroke-width="1"/>
  <rect x="752" y="324" width="180" height="20" fill="#0d1117" rx="4" stroke="#30363d" stroke-width="1"/>
  <rect x="756" y="328" width="14" height="12" rx="3" fill="#0d1117" stroke="#E06C45" stroke-width="1.5"/>
  <text x="760" y="337" fill="#8b949e" font-size="7" font-weight="700" class="mono">A</text>
  <text x="774" y="338" fill="#c9d1d9" font-size="10" font-weight="600">Validate migration results</text>
</svg>
