<svg xmlns="http://www.w3.org/2000/svg" viewBox="0 0 960 540">
  <defs>
    <style>
      text { font-family: -apple-system, 'SF Pro', 'Inter', sans-serif; }
      .mono { font-family: 'SF Mono', 'Fira Code', Consolas, monospace; }
    </style>
  </defs>

  <!-- Background -->
  <rect width="960" height="540" fill="#0d1117" rx="8"/>

  <!-- Header bar -->
  <rect x="0" y="0" width="960" height="44" fill="#161b22" rx="8"/>
  <rect x="0" y="36" width="960" height="8" fill="#161b22"/>
  <text x="16" y="28" fill="#58a6ff" font-size="14" font-weight="700" class="mono">claude-hub</text>
  <text x="120" y="28" fill="#8b949e" font-size="12">user</text>
  <!-- Header buttons -->
  <rect x="750" y="10" width="50" height="24" rx="6" fill="#21262d" stroke="#30363d" stroke-width="1"/>
  <text x="764" y="26" fill="#8b949e" font-size="10" class="mono">QR</text>
  <rect x="810" y="10" width="50" height="24" rx="6" fill="#21262d" stroke="#30363d" stroke-width="1"/>
  <text x="818" y="26" fill="#8b949e" font-size="10" class="mono">Dark</text>
  <rect x="870" y="10" width="70" height="24" rx="6" fill="#238636" stroke="#2ea043" stroke-width="1"/>
  <text x="880" y="26" fill="#fff" font-size="10" font-weight="600">+ New</text>

  <!-- Sidebar -->
  <rect x="0" y="44" width="220" height="496" fill="#0d1117"/>
  <line x1="220" y1="44" x2="220" y2="540" stroke="#21262d" stroke-width="1"/>

  <!-- Sidebar: Project 1 -->
  <rect x="0" y="44" width="220" height="36" fill="#161b22"/>
  <circle cx="20" cy="62" r="5" fill="#1D9E75"/>
  <text x="32" y="66" fill="#c9d1d9" font-size="12" font-weight="600">my-webapp</text>
  <text x="175" y="66" fill="#8b949e" font-size="10" class="mono">12</text>

  <!-- Sessions under project 1 -->
  <rect x="0" y="80" width="220" height="30" fill="#1a2233"/>
  <circle cx="24" cy="95" r="3" fill="#3fb950"/>
  <text x="34" y="99" fill="#c9d1d9" font-size="11">Fix auth middleware</text>

  <rect x="0" y="110" width="220" height="30" fill="transparent"/>
  <circle cx="24" cy="125" r="3" fill="#484f58"/>
  <text x="34" y="129" fill="#8b949e" font-size="11">Add user settings page</text>

  <rect x="0" y="140" width="220" height="30" fill="transparent"/>
  <circle cx="24" cy="155" r="3" fill="#484f58"/>
  <text x="34" y="159" fill="#8b949e" font-size="11">Refactor API routes</text>

  <!-- Sidebar: Project 2 -->
  <rect x="0" y="180" width="220" height="36" fill="#161b22"/>
  <circle cx="20" cy="198" r="5" fill="#378ADD"/>
  <text x="32" y="202" fill="#c9d1d9" font-size="12" font-weight="600">mobile-app</text>
  <text x="175" y="202" fill="#8b949e" font-size="10" class="mono">8</text>

  <rect x="0" y="216" width="220" height="30" fill="transparent"/>
  <circle cx="24" cy="231" r="3" fill="#484f58"/>
  <text x="34" y="235" fill="#8b949e" font-size="11">Push notification setup</text>

  <rect x="0" y="246" width="220" height="30" fill="transparent"/>
  <circle cx="24" cy="261" r="3" fill="#484f58"/>
  <text x="34" y="265" fill="#8b949e" font-size="11">Dark mode support</text>

  <!-- Sidebar: Project 3 -->
  <rect x="0" y="296" width="220" height="36" fill="#161b22"/>
  <circle cx="20" cy="314" r="5" fill="#BA7517"/>
  <text x="32" y="318" fill="#c9d1d9" font-size="12" font-weight="600">api-server</text>
  <text x="175" y="318" fill="#8b949e" font-size="10" class="mono">5</text>

  <rect x="0" y="332" width="220" height="30" fill="transparent"/>
  <circle cx="24" cy="347" r="3" fill="#3fb950"/>
  <text x="34" y="351" fill="#8b949e" font-size="11">Database migration</text>

  <!-- Main content: Session grid -->
  <rect x="232" y="56" width="716" height="472" fill="#0d1117"/>

  <!-- Tabs -->
  <rect x="232" y="56" width="80" height="30" fill="transparent"/>
  <text x="255" y="76" fill="#58a6ff" font-size="12" font-weight="600">Sessions</text>
  <rect x="255" y="84" width="50" height="2" fill="#58a6ff" rx="1"/>
  <text x="335" y="76" fill="#8b949e" font-size="12">Agents</text>
  <text x="415" y="76" fill="#8b949e" font-size="12">Settings</text>

  <!-- Sites bar -->
  <rect x="240" y="96" width="700" height="28" fill="#161b22" rx="6"/>
  <text x="254" y="114" fill="#58a6ff" font-size="11" class="mono">🚀 My App</text>
  <text x="340" y="114" fill="#58a6ff" font-size="11" class="mono">📖 Docs</text>
  <text x="410" y="114" fill="#58a6ff" font-size="11" class="mono">📊 Dashboard</text>
  <text x="910" y="114" fill="#484f58" font-size="11">+</text>

  <!-- Session cards -->
  <!-- Card 1 - Active -->
  <rect x="240" y="136" width="340" height="110" fill="#161b22" rx="8" stroke="#238636" stroke-width="1"/>
  <circle cx="258" cy="156" r="4" fill="#3fb950"/>
  <text x="270" y="160" fill="#c9d1d9" font-size="13" font-weight="600">Fix auth middleware</text>
  <text x="270" y="178" fill="#8b949e" font-size="11" class="mono">opus-4-6 · 45 messages</text>
  <text x="270" y="198" fill="#8b949e" font-size="10">Q: Can you fix the JWT validation?</text>
  <text x="270" y="212" fill="#6e7681" font-size="10">A: I'll update the middleware to properly validate...</text>
  <text x="270" y="234" fill="#484f58" font-size="10" class="mono">3 sub-agents · 2 min ago</text>

  <!-- Card 2 -->
  <rect x="600" y="136" width="340" height="110" fill="#161b22" rx="8" stroke="#30363d" stroke-width="1"/>
  <circle cx="618" cy="156" r="4" fill="#484f58"/>
  <text x="630" y="160" fill="#c9d1d9" font-size="13" font-weight="600">Add user settings page</text>
  <text x="630" y="178" fill="#8b949e" font-size="11" class="mono">sonnet-4-6 · 28 messages</text>
  <text x="630" y="198" fill="#8b949e" font-size="10">Q: Create a settings page with theme toggle</text>
  <text x="630" y="212" fill="#6e7681" font-size="10">A: I'll set up the settings component with...</text>
  <text x="630" y="234" fill="#484f58" font-size="10" class="mono">1 sub-agent · 1 hour ago</text>

  <!-- Card 3 -->
  <rect x="240" y="260" width="340" height="110" fill="#161b22" rx="8" stroke="#30363d" stroke-width="1"/>
  <circle cx="258" cy="280" r="4" fill="#484f58"/>
  <text x="270" y="284" fill="#c9d1d9" font-size="13" font-weight="600">Refactor API routes</text>
  <text x="270" y="302" fill="#8b949e" font-size="11" class="mono">opus-4-6 · 62 messages</text>
  <text x="270" y="322" fill="#8b949e" font-size="10">Q: Split the monolithic router into modules</text>
  <text x="270" y="336" fill="#6e7681" font-size="10">A: I'll create separate route files for each...</text>
  <text x="270" y="358" fill="#484f58" font-size="10" class="mono">5 sub-agents · 3 hours ago</text>

  <!-- Card 4 -->
  <rect x="600" y="260" width="340" height="110" fill="#161b22" rx="8" stroke="#30363d" stroke-width="1"/>
  <circle cx="618" cy="280" r="4" fill="#484f58"/>
  <text x="630" y="284" fill="#c9d1d9" font-size="13" font-weight="600">Write unit tests</text>
  <text x="630" y="302" fill="#8b949e" font-size="11" class="mono">haiku-4-5 · 15 messages</text>
  <text x="630" y="322" fill="#8b949e" font-size="10">Q: Add tests for the payment module</text>
  <text x="630" y="336" fill="#6e7681" font-size="10">A: I'll create comprehensive tests covering...</text>
  <text x="630" y="358" fill="#484f58" font-size="10" class="mono">no agents · yesterday</text>

  <!-- Card 5 -->
  <rect x="240" y="384" width="340" height="110" fill="#161b22" rx="8" stroke="#30363d" stroke-width="1"/>
  <circle cx="258" cy="404" r="4" fill="#3fb950"/>
  <text x="270" y="408" fill="#c9d1d9" font-size="13" font-weight="600">Database migration</text>
  <text x="270" y="426" fill="#8b949e" font-size="11" class="mono">opus-4-6 · 33 messages</text>
  <text x="270" y="446" fill="#8b949e" font-size="10">Q: Migrate from Postgres to PlanetScale</text>
  <text x="270" y="460" fill="#6e7681" font-size="10">A: I'll create the migration script and update...</text>
  <text x="270" y="482" fill="#484f58" font-size="10" class="mono">2 sub-agents · 5 min ago</text>
</svg>
